<svg width="29" height="30" viewBox="0 0 29 30" fill="none" xmlns="http://www.w3.org/2000/svg">
<g filter="url(#filter0_d)">
<path d="M16.0202 2C17.8202 2 18.2002 2.02 19.1202 2.06C20.1802 2.11 20.9102 2.28 21.5402 2.53C22.2002 2.78 22.7602 3.13 23.3102 3.68C23.8702 4.23 24.2102 4.79 24.4702 5.45C24.7202 6.08 24.8802 6.81 24.9302 7.88C24.9802 8.83 24.9902 9.2 24.9902 11.2V12.8C24.9902 14.8 24.9802 15.17 24.9302 16.12C24.9144 16.9468 24.7589 17.7651 24.4702 18.54C24.2102 19.2 23.8702 19.76 23.3202 20.31C22.7602 20.87 22.2002 21.21 21.5402 21.47C20.9102 21.72 20.1802 21.88 19.1202 21.93C18.1702 21.98 17.7902 21.99 15.7902 21.99H14.2002C12.2002 21.99 11.8302 21.98 10.8702 21.93C10.0433 21.9141 9.22515 21.7586 8.45015 21.47C7.78376 21.2195 7.17981 20.8271 6.68015 20.32C6.16796 19.8186 5.77199 19.211 5.52015 18.54C5.23177 17.765 5.07626 16.9468 5.06015 16.12C5.01113 15.0874 4.99112 14.0537 5.00015 13.02V10.97C5.00015 9.17 5.02015 8.79 5.06015 7.87C5.11015 6.81 5.28015 6.08 5.52015 5.45C5.78015 4.79 6.12015 4.23 6.68015 3.68C7.17533 3.16743 7.78059 2.77418 8.45015 2.53C9.22461 2.23821 10.0428 2.07931 10.8702 2.06C11.7902 2.02 12.1702 2 13.9702 2H16.0202ZM16.0402 3.8H13.9502C12.2202 3.8 11.8502 3.82 10.9502 3.86C9.98015 3.9 9.45015 4.06 9.10015 4.2C8.63015 4.38 8.30015 4.6 7.95015 4.95C7.60015 5.3 7.38015 5.63 7.20015 6.1C7.07015 6.45 6.90015 6.98 6.86015 7.96C6.82015 8.86 6.80015 9.22 6.80015 10.96V13.04C6.80015 14.78 6.82015 15.14 6.86015 16.04C6.90015 17.01 7.06015 17.54 7.20015 17.89C7.38015 18.36 7.60015 18.69 7.95015 19.04C8.30015 19.39 8.63015 19.61 9.10015 19.79C9.45015 19.93 9.98015 20.09 10.9602 20.13C11.9302 20.18 12.2802 20.19 14.4402 20.19H15.5502C17.7202 20.19 18.0602 20.18 19.0402 20.13C20.0102 20.09 20.5402 19.93 20.8902 19.79C21.3602 19.61 21.6902 19.39 22.0402 19.04C22.3902 18.69 22.6102 18.36 22.7902 17.89C22.9302 17.54 23.0902 17.01 23.1302 16.04C23.1802 15.06 23.1902 14.72 23.1902 12.55V11.45C23.1902 9.28 23.1802 8.93 23.1302 7.95C23.0902 6.98 22.9302 6.45 22.7902 6.1C22.6292 5.66543 22.373 5.27246 22.0402 4.95C21.7179 4.61692 21.3249 4.3606 20.8902 4.2C20.2971 3.98317 19.6716 3.86822 19.0402 3.86C18.0409 3.81227 17.0405 3.79226 16.0402 3.8ZM15.0002 6.86C16.362 6.86 17.6681 7.40101 18.6311 8.36401C19.5941 9.32701 20.1352 10.6331 20.1352 11.995C20.1352 13.3569 19.5941 14.663 18.6311 15.626C17.6681 16.589 16.362 17.13 15.0002 17.13C13.6383 17.13 12.3322 16.589 11.3692 15.626C10.4062 14.663 9.86515 13.3569 9.86515 11.995C9.86515 10.6331 10.4062 9.32701 11.3692 8.36401C12.3322 7.40101 13.6383 6.86 15.0002 6.86ZM15.0002 8.66C14.1157 8.66 13.2674 9.01136 12.642 9.6368C12.0165 10.2622 11.6652 11.1105 11.6652 11.995C11.6652 12.8795 12.0165 13.7278 12.642 14.3532C13.2674 14.9786 14.1157 15.33 15.0002 15.33C15.8847 15.33 16.7329 14.9786 17.3584 14.3532C17.9838 13.7278 18.3352 12.8795 18.3352 11.995C18.3352 11.1105 17.9838 10.2622 17.3584 9.6368C16.7329 9.01136 15.8847 8.66 15.0002 8.66ZM20.3302 5.46C20.6484 5.46 20.9536 5.58643 21.1787 5.81147C21.4037 6.03652 21.5302 6.34174 21.5302 6.66C21.5302 6.97826 21.4037 7.28348 21.1787 7.50853C20.9536 7.73357 20.6484 7.86 20.3302 7.86C20.0119 7.86 19.7067 7.73357 19.4816 7.50853C19.2566 7.28348 19.1302 6.97826 19.1302 6.66C19.1302 6.34174 19.2566 6.03652 19.4816 5.81147C19.7067 5.58643 20.0119 5.46 20.3302 5.46Z" fill="white"/>
</g>
<defs>
<filter id="filter0_d" x="-1" y="0" width="32" height="32" filterUnits="userSpaceOnUse" color-interpolation-filters="sRGB">
<feFlood flood-opacity="0" result="BackgroundImageFix"/>
<feColorMatrix in="SourceAlpha" type="matrix" values="0 0 0 0 0 0 0 0 0 0 0 0 0 0 0 0 0 0 127 0" result="hardAlpha"/>
<feOffset dy="4"/>
<feGaussianBlur stdDeviation="2"/>
<feComposite in2="hardAlpha" operator="out"/>
<feColorMatrix type="matrix" values="0 0 0 0 0 0 0 0 0 0 0 0 0 0 0 0 0 0 0.25 0"/>
<feBlend mode="normal" in2="BackgroundImageFix" result="effect1_dropShadow"/>
<feBlend mode="normal" in="SourceGraphic" in2="effect1_dropShadow" result="shape"/>
</filter>
</defs>
</svg>
